<svg width="289" height="149" viewBox="0 0 289 149" fill="none" xmlns="http://www.w3.org/2000/svg">
<path d="M70.94 54.4499C68.0123 50.4451 60.5578 49.1449 55.5993 49.1449C43.9549 49.1449 37.7674 53.9706 34.3936 57.3396C22.9723 68.7609 21.4966 81.3353 27.371 96.3866C31.167 106.1 40.7425 112.904 50.9966 114.826C61.2506 116.748 71.9839 114.238 81.2178 109.379C80.4681 119.974 83.0826 131.263 90.4611 138.902C100.597 149.398 117.859 150.599 131.117 144.497C144.37 138.399 154.031 126.333 160.75 113.383C166.453 122.94 175.573 130.636 186.297 133.607C197.021 136.577 209.268 134.456 217.728 127.225C224.627 121.327 228.542 112.776 232.926 104.823C233.396 103.974 233.961 103.053 234.891 102.773C236.115 102.403 237.325 103.3 238.317 104.107C245.857 110.266 255.176 114.854 264.908 114.608C274.64 114.366 284.576 101.953 287.328 92.6143C289.321 85.8574 290.769 71.4989 284.126 63.195C277.957 56.552 269.478 52.6563 262.536 51.5697C262.265 37.2728 262.536 36.86 259.84 23.6688C257.283 17.7422 254.099 11.9105 249.24 7.65898C239.655 -0.725515 224.305 -1.10988 213.761 6.04091C203.222 13.1869 197.889 26.8859 199.849 39.4698C195.037 28.2145 185.969 18.6343 174.572 14.1787C163.174 9.72308 149.527 10.7955 139.511 17.8229C129.494 24.8503 123.786 37.9324 126.395 49.8899C116.511 38.592 99.0876 34.663 85.3128 40.6323C78.4894 43.5932 72.093 50.0845 70.94 54.4499Z" fill="#B0BBDD"/>
<circle r="9.92783" transform="matrix(-1 0 0 1 151.649 81.6239)" fill="white"/>
<circle r="7.24732" transform="matrix(-1 0 0 1 151.549 81.5244)" fill="#EBB0CC"/>
<circle r="4.46753" transform="matrix(-1 0 0 1 151.549 81.5244)" fill="#415894"/>
<circle r="2.08485" transform="matrix(-1 0 0 1 149.167 77.9503)" fill="white"/>
<circle r="9.92783" transform="matrix(-1 0 0 1 120.928 81.6236)" fill="white"/>
<circle r="7.24732" transform="matrix(-1 0 0 1 120.829 81.5244)" fill="#EBB0CC"/>
<circle r="4.46753" transform="matrix(-1 0 0 1 120.829 81.5247)" fill="#415894"/>
<circle r="2.08485" transform="matrix(-1 0 0 1 118.446 77.9506)" fill="white"/>
<path fill-rule="evenodd" clip-rule="evenodd" d="M177.871 56.5073C178.198 55.7054 180.996 51 180.996 51C180.996 51 183.653 55.5967 184.162 56.5123C184.562 57.1124 184.796 57.8335 184.796 58.6091C184.796 60.6974 183.103 62.3903 181.015 62.3903C178.926 62.3903 177.233 60.6974 177.233 58.6091C177.233 57.8313 177.468 57.1084 177.871 56.5073Z" fill="white"/>
<path fill-rule="evenodd" clip-rule="evenodd" d="M169.722 68.2777C170.049 67.4762 172.847 62.7703 172.847 62.7703C172.847 62.7703 175.504 67.3659 176.013 68.2822C176.414 68.8824 176.647 69.6036 176.647 70.3794C176.647 72.4677 174.954 74.1606 172.866 74.1606C170.778 74.1606 169.085 72.4677 169.085 70.3794C169.085 69.6016 169.32 68.8787 169.722 68.2777Z" fill="white"/>
<path d="M82 0C78.6863 0 76 2.68629 76 6C76 8.08697 77.0655 9.92508 78.6822 11H66C62.6863 11 60 13.6863 60 17C60 20.3137 62.6863 23 66 23H112.5C112.641 23 112.781 22.9951 112.919 22.9856C113.112 22.9952 113.305 23 113.5 23C119.851 23 125 17.8513 125 11.5C125 5.14873 119.851 0 113.5 0C113.403 0 113.306 0.0012027 113.21 0.00359402C113.14 0.00120452 113.07 0 113 0H82Z" fill="#EBB0CC"/>
<path d="M82 0C78.6863 0 76 2.68629 76 6C76 8.08697 77.0655 9.92508 78.6822 11H66C62.6863 11 60 13.6863 60 17C60 20.3137 62.6863 23 66 23H112.5C112.641 23 112.781 22.9951 112.919 22.9856C113.112 22.9952 113.305 23 113.5 23C119.851 23 125 17.8513 125 11.5C125 5.14873 119.851 0 113.5 0C113.403 0 113.306 0.0012027 113.21 0.00359402C113.14 0.00120452 113.07 0 113 0H82Z" fill="#EBB0CC"/>
<path d="M240 122C243.314 122 246 124.686 246 128C246 131.314 243.314 134 240 134C236.686 134 234 131.314 234 128C234 124.686 236.686 122 240 122Z" fill="#EBB0CC"/>
<path d="M258.5 122C261.814 122 264.5 124.686 264.5 128C264.5 131.314 261.814 134 258.5 134C255.186 134 252.5 131.314 252.5 128C252.5 124.686 255.186 122 258.5 122Z" fill="#EBB0CC"/>
<path d="M246 128C246 124.686 243.314 122 240 122H258.5C255.186 122 252.5 124.686 252.5 128C252.5 131.314 255.186 134 258.5 134H240C243.314 134 246 131.314 246 128Z" fill="#EBB0CC"/>
<path d="M240 122C243.314 122 246 124.686 246 128C246 131.314 243.314 134 240 134C236.686 134 234 131.314 234 128C234 124.686 236.686 122 240 122Z" fill="#EBB0CC"/>
<path d="M258.5 122C261.814 122 264.5 124.686 264.5 128C264.5 131.314 261.814 134 258.5 134C255.186 134 252.5 131.314 252.5 128C252.5 124.686 255.186 122 258.5 122Z" fill="#EBB0CC"/>
<path d="M246 128C246 124.686 243.314 122 240 122H258.5C255.186 122 252.5 124.686 252.5 128C252.5 131.314 255.186 134 258.5 134H240C243.314 134 246 131.314 246 128Z" fill="#EBB0CC"/>
<path d="M6 134C9.31371 134 12 136.686 12 140C12 143.314 9.31371 146 6 146C2.68629 146 0 143.314 0 140C0 136.686 2.68629 134 6 134Z" fill="#EBB0CC"/>
<path d="M39 134C42.3137 134 45 136.686 45 140C45 143.314 42.3137 146 39 146C35.6863 146 33 143.314 33 140C33 136.686 35.6863 134 39 134Z" fill="#EBB0CC"/>
<path d="M12 140C12 136.686 9.31371 134 6 134H39C35.6863 134 33 136.686 33 140C33 143.314 35.6863 146 39 146H6C9.31371 146 12 143.314 12 140Z" fill="#EBB0CC"/>
<path d="M6 134C9.31371 134 12 136.686 12 140C12 143.314 9.31371 146 6 146C2.68629 146 0 143.314 0 140C0 136.686 2.68629 134 6 134Z" fill="#EBB0CC"/>
<path d="M39 134C42.3137 134 45 136.686 45 140C45 143.314 42.3137 146 39 146C35.6863 146 33 143.314 33 140C33 136.686 35.6863 134 39 134Z" fill="#EBB0CC"/>
<path d="M12 140C12 136.686 9.31371 134 6 134H39C35.6863 134 33 136.686 33 140C33 143.314 35.6863 146 39 146H6C9.31371 146 12 143.314 12 140Z" fill="#EBB0CC"/>
</svg>
