<svg width="1440" height="995" viewBox="0 0 1440 995" fill="none" xmlns="http://www.w3.org/2000/svg">
<path d="M62.2764 36.3894C34.0909 39.2816 2.79991 58.8308 0.000183105 87L0.14134 87.0001L0.141157 995H1440L1440 86.9906H1439.54L1437.51 82.2973C1432.33 69.9057 1423.41 59.8559 1411.79 53.084C1401.11 46.8529 1387.04 46.9234 1376.41 53.2486C1366 59.4353 1359.32 71.3584 1359.38 83.451C1359.05 76.0113 1353.27 69.8705 1347.87 64.6056C1327.23 39.211 1284.13 53.5778 1281.12 82.5229C1284.16 47.0646 1250.98 12.9699 1215.43 15.0156C1178.97 17.1083 1151.53 50.5916 1139.79 85.1564C1138.12 70.5545 1124.76 58.2335 1110.08 57.6927C1095.9 57.1702 1082.13 67.7289 1078.75 81.4621C1084.29 53.7923 1063.54 23.4233 1035.59 18.8483C996.573 12.4657 964.345 50.0421 950.103 86.9906H949.759C946.946 70.3395 932.213 56.3764 915.393 54.5653C898.359 52.7313 880.761 63.5239 874.667 79.5131C862.88 44.4545 843.517 3.39992 806.65 0.178565C784.558 -1.74954 763.36 12.1705 751.103 30.6286C740.038 47.2904 735.07 67.1327 732.044 86.9906H730.027C724.489 63.7528 702.955 44.8016 678.969 43.1847C652.807 41.4212 626.762 60.4673 620.527 85.9324C612.411 64.3705 588.86 49.7216 565.921 51.9789C546.075 53.9522 528.254 68.4043 521.387 86.9906H517.809C510.446 49.1543 475.022 17.8898 436.216 16.7556C395.721 15.5719 356.968 47.3315 349.539 86.9906H347.053C337.614 68.7448 318.302 55.583 297.759 55.0121C276.854 54.4311 255.969 67.6536 248.293 86.9906H247.216C246.523 57.8114 221.729 30.7971 192.522 28.2302C162.29 25.5731 132.105 49.5099 127.846 79.5367C119.377 52.5196 90.4619 33.4973 62.2764 36.3894Z" fill="white"/>
</svg>
