<svg width="121" height="70" viewBox="0 0 121 70" fill="none" xmlns="http://www.w3.org/2000/svg">
<path d="M0.826922 21.3182L0.639846 21.4255L0.638979 21.426L0.928327 21.8839L0.640535 21.4268L0.639846 21.4255L0.633037 21.4149L0.633923 21.4144L0.826922 21.3182Z" fill="url(#paint0_linear_110_568)"/>
<path d="M43.7011 19.6767C28.7915 16.2851 19.6087 15.9351 4.28209 19.6756C4.05401 19.426 3.72409 19.1914 3.36073 19.0034C2.95773 18.795 2.49616 18.6348 2.0546 18.5764C1.61756 18.5185 1.16993 18.5566 0.824436 18.783C0.465145 19.0184 0.261713 19.4264 0.261713 20.0033C0.261713 20.3464 0.357801 20.7019 0.447945 20.9624C0.493691 21.0946 0.539407 21.2065 0.573817 21.2857C0.591049 21.3254 0.60552 21.357 0.615843 21.379L0.622398 21.3929L0.633923 21.4144L0.826922 21.3182L0.639846 21.4255L0.640535 21.4268L0.928327 21.8839C0.955259 21.9234 0.983571 21.964 1.01304 22.0053C1.1216 22.1572 1.24805 22.3205 1.38064 22.463C1.50352 22.5951 1.6434 22.7223 1.7891 22.8009C-0.849276 31.9027 -0.385139 38.2177 1.97771 48.4936C1.78502 48.5651 1.75602 48.5569 1.76809 48.5377C1.67878 48.6021 1.47941 48.7499 1.38064 48.8561C1.24805 48.9986 1.1216 49.1619 1.01304 49.3138C0.904095 49.4664 0.810903 49.6107 0.745017 49.7167C0.712013 49.7698 0.685709 49.8135 0.667543 49.8442C0.658457 49.8595 0.651397 49.8716 0.646544 49.88L0.640936 49.8897L0.639413 49.8924L0.638799 49.8934L0.615843 49.9401C0.60552 49.9621 0.591049 49.9937 0.573817 50.0334C0.539407 50.1126 0.493691 50.2245 0.447945 50.3567C0.357801 50.6172 0.261713 50.9727 0.261713 51.3158C0.261713 51.8927 0.465145 52.3007 0.824436 52.5361C1.16993 52.7625 1.61756 52.8006 2.0546 52.7427C2.49616 52.6843 2.95773 52.5241 3.36073 52.3157C3.73101 52.1241 4.06657 51.8842 4.29501 51.6292C20.9626 54.8687 30.2008 54.6867 43.7588 51.7032C43.9832 51.9304 44.2891 52.1428 44.6234 52.3157C45.0264 52.5241 45.488 52.6843 45.9295 52.7427C46.3666 52.8006 46.8142 52.7625 47.1597 52.5361C47.519 52.3007 47.7224 51.8927 47.7224 51.3158C47.7224 50.9727 47.6263 50.6172 47.5362 50.3567C47.4904 50.2245 47.4447 50.1126 47.4103 50.0334C47.3931 49.9937 47.3786 49.9621 47.3683 49.9401C47.3631 49.9291 47.359 49.9204 47.3561 49.9144L47.3526 49.9073L47.3516 49.9052L47.3512 49.9045L47.351 49.9042L47.3483 49.8987L47.3451 49.8931L47.3447 49.8924L47.1946 49.6459C47.1338 49.5503 47.0574 49.4347 46.9711 49.3138C46.8625 49.1619 46.7361 48.9986 46.6035 48.8561C46.5051 48.7503 46.3959 48.6478 46.2814 48.5707C48.6002 39.5156 48.5722 33.0352 46.1994 22.7986C46.3435 22.7197 46.4818 22.5938 46.6035 22.463C46.7361 22.3205 46.8625 22.1572 46.9711 22.0053C47.08 21.8527 47.1732 21.7084 47.2391 21.6024C47.2721 21.5493 47.2984 21.5056 47.3166 21.4749L47.3274 21.4566L47.3376 21.4391L47.3432 21.4294L47.3447 21.4268L47.3453 21.4257L47.3561 21.4047L47.3591 21.3984L47.3683 21.379C47.3786 21.357 47.3931 21.3254 47.4103 21.2857C47.4447 21.2065 47.4904 21.0946 47.5362 20.9624C47.6263 20.7019 47.7224 20.3464 47.7224 20.0033C47.7224 19.4264 47.519 19.0184 47.1597 18.783C46.8142 18.5566 46.3666 18.5185 45.9295 18.5764C45.488 18.6348 45.0264 18.795 44.6234 19.0034C44.2595 19.1917 43.9292 19.4267 43.7011 19.6767Z" fill="url(#paint1_linear_110_568)"/>
<path d="M73.1319 27.536C72.2919 27.44 71.9079 27.44 71.0199 27.44H65.3079V44H70.9719C71.8599 44 72.2439 44 73.0839 43.904C76.9239 43.448 79.9479 40.568 79.9479 35.504C79.9479 30.44 76.9719 27.992 73.1319 27.536ZM72.3399 41.312C71.8119 41.384 71.3079 41.384 70.5879 41.384H68.6199V30.032H70.6359C71.3799 30.032 71.8599 30.056 72.4119 30.128C74.8599 30.44 76.4439 32.288 76.4439 35.552C76.4439 38.936 74.8119 41 72.3399 41.312ZM87.9986 30.896C83.7506 30.896 81.3746 33.728 81.3746 37.616C81.3746 41.48 83.7506 44.336 87.9986 44.336C92.2466 44.336 94.6226 41.48 94.6226 37.616C94.6226 33.728 92.2466 30.896 87.9986 30.896ZM87.9986 42.008C86.0066 42.008 84.8066 40.352 84.8066 37.616C84.8066 34.856 86.0066 33.224 87.9986 33.224C89.9906 33.224 91.1906 34.856 91.1906 37.616C91.1906 40.352 89.9906 42.008 87.9986 42.008ZM106.513 41.792H99.5533L106.417 33.512V31.328H96.3853V33.536H102.865L95.9533 41.912V44H106.513V41.792ZM120.057 37.352C120.057 33.872 117.993 30.896 114.081 30.896C110.169 30.896 107.601 33.752 107.601 37.664C107.601 42.152 110.313 44.336 113.817 44.336C116.817 44.336 119.217 42.824 119.865 39.848H116.553C116.337 41.216 115.305 42.008 113.889 42.008C112.353 42.008 111.153 41.168 110.937 38.48H120.009C120.057 38.048 120.057 37.664 120.057 37.352ZM113.937 33.224C115.521 33.224 116.433 34.304 116.649 36.32H111.033C111.321 34.208 112.401 33.224 113.937 33.224Z" fill="white"/>
<defs>
<linearGradient id="paint0_linear_110_568" x1="0" y1="17" x2="58.2641" y2="62.0143" gradientUnits="userSpaceOnUse">
<stop stop-color="#415894"/>
<stop offset="0.989583" stop-color="#EBB0CC"/>
</linearGradient>
<linearGradient id="paint1_linear_110_568" x1="0" y1="17" x2="58.2641" y2="62.0143" gradientUnits="userSpaceOnUse">
<stop stop-color="#415894"/>
<stop offset="0.989583" stop-color="#EBB0CC"/>
</linearGradient>
</defs>
</svg>
