<svg width="48" height="37" viewBox="0 0 48 37" fill="none" xmlns="http://www.w3.org/2000/svg">
<path d="M0.826922 4.31815L0.639846 4.4255L0.638979 4.426L0.928327 4.8839L0.640535 4.42678L0.639846 4.4255L0.633037 4.41488L0.633923 4.41443L0.826922 4.31815Z" fill="url(#paint0_linear_21_10)"/>
<path d="M43.7011 2.6767C28.7915 -0.714851 19.6087 -1.06492 4.28209 2.67563C4.05401 2.42598 3.72409 2.19139 3.36073 2.00344C2.95773 1.79498 2.49616 1.63483 2.0546 1.57635C1.61756 1.51847 1.16993 1.55662 0.824436 1.78297C0.465145 2.01836 0.261713 2.42641 0.261713 3.00327C0.261713 3.34643 0.357801 3.70187 0.447945 3.96237C0.493691 4.09457 0.539407 4.20652 0.573817 4.28571C0.591049 4.32538 0.60552 4.35699 0.615843 4.37902L0.622398 4.3929L0.633923 4.41443L0.826922 4.31815L0.639846 4.4255L0.640535 4.42678L0.928327 4.8839C0.955259 4.92336 0.983571 4.964 1.01304 5.00525C1.1216 5.15723 1.24805 5.32053 1.38064 5.46303C1.50352 5.5951 1.6434 5.72225 1.7891 5.80095C-0.849276 14.9027 -0.385139 21.2177 1.97771 31.4936C1.78502 31.5651 1.75602 31.5569 1.76809 31.5377C1.67878 31.6021 1.47941 31.7499 1.38064 31.8561C1.24805 31.9986 1.1216 32.1619 1.01304 32.3139C0.904095 32.4664 0.810903 32.6107 0.745017 32.7167C0.712013 32.7698 0.685709 32.8135 0.667543 32.8442C0.658457 32.8595 0.651397 32.8716 0.646544 32.88L0.640936 32.8897L0.639413 32.8923L0.638799 32.8934L0.615843 32.9401C0.60552 32.9621 0.591049 32.9937 0.573817 33.0334C0.539407 33.1126 0.493691 33.2245 0.447945 33.3567C0.357801 33.6172 0.261713 33.9727 0.261713 34.3158C0.261713 34.8927 0.465145 35.3007 0.824436 35.5361C1.16993 35.7625 1.61756 35.8006 2.0546 35.7427C2.49616 35.6843 2.95773 35.5241 3.36073 35.3157C3.73101 35.1241 4.06657 34.8842 4.29501 34.6292C20.9626 37.8687 30.2008 37.6867 43.7588 34.7032C43.9832 34.9304 44.2891 35.1428 44.6234 35.3157C45.0264 35.5241 45.488 35.6843 45.9295 35.7427C46.3666 35.8006 46.8142 35.7625 47.1597 35.5361C47.519 35.3007 47.7224 34.8927 47.7224 34.3158C47.7224 33.9727 47.6263 33.6172 47.5362 33.3567C47.4904 33.2245 47.4447 33.1126 47.4103 33.0334C47.3931 32.9937 47.3786 32.9621 47.3683 32.9401C47.3631 32.9291 47.359 32.9204 47.3561 32.9144L47.3526 32.9073L47.3516 32.9052L47.3512 32.9045L47.351 32.9042L47.3484 32.8987L47.3451 32.8931L47.3447 32.8923L47.1946 32.6459C47.1338 32.5503 47.0574 32.4347 46.9711 32.3139C46.8625 32.1619 46.7361 31.9986 46.6035 31.8561C46.5051 31.7503 46.3959 31.6478 46.2814 31.5707C48.6002 22.5156 48.5722 16.0352 46.1994 5.79856C46.3435 5.7197 46.4818 5.59377 46.6035 5.46303C46.7361 5.32053 46.8625 5.15723 46.9711 5.00525C47.08 4.85274 47.1732 4.70843 47.2391 4.60241C47.2721 4.54931 47.2984 4.50556 47.3166 4.4749L47.3274 4.45657L47.3376 4.43911L47.3432 4.42941L47.3447 4.42675L47.3453 4.42568L47.3561 4.40472L47.3591 4.39845L47.3683 4.37902C47.3786 4.35699 47.3931 4.32538 47.4103 4.28571C47.4447 4.20652 47.4904 4.09457 47.5362 3.96237C47.6263 3.70187 47.7224 3.34643 47.7224 3.00327C47.7224 2.42641 47.519 2.01836 47.1597 1.78297C46.8142 1.55662 46.3666 1.51847 45.9295 1.57635C45.488 1.63483 45.0264 1.79498 44.6234 2.00344C44.2595 2.19166 43.9292 2.42665 43.7011 2.6767Z" fill="url(#paint1_linear_21_10)"/>
<defs>
<linearGradient id="paint0_linear_21_10" x1="0" y1="0" x2="58.2641" y2="45.0143" gradientUnits="userSpaceOnUse">
<stop stop-color="#415894"/>
<stop offset="0.989583" stop-color="#EBB0CC"/>
</linearGradient>
<linearGradient id="paint1_linear_21_10" x1="0" y1="0" x2="58.2641" y2="45.0143" gradientUnits="userSpaceOnUse">
<stop stop-color="#415894"/>
<stop offset="0.989583" stop-color="#EBB0CC"/>
</linearGradient>
</defs>
</svg>
