<svg width="158" height="207" viewBox="0 0 158 207" fill="none" xmlns="http://www.w3.org/2000/svg">
<path d="M4.65304 51.8881L4.05284 52.2334L4.05006 52.235L4.97838 53.7077L4.05505 52.2375L4.05284 52.2334L4.03099 52.1992L4.03384 52.1978L4.65304 51.8881Z" fill="#415894"/>
<path d="M142.208 46.6088C94.3726 35.7009 64.9111 34.575 15.7384 46.6054C15.0066 45.8025 13.9481 45.048 12.7823 44.4435C11.4894 43.7731 10.0085 43.258 8.59184 43.0699C7.18968 42.8837 5.75352 43.0064 4.64507 43.7344C3.49234 44.4915 2.83966 45.8039 2.83966 47.6592C2.83966 48.7629 3.14794 49.906 3.43716 50.7438C3.58393 51.169 3.7306 51.5291 3.841 51.7838C3.89628 51.9113 3.94271 52.013 3.97583 52.0839L3.99686 52.1285L4.03384 52.1978L4.65304 51.8881L4.05284 52.2334L4.05505 52.2375L4.97838 53.7077C5.06479 53.8346 5.15562 53.9653 5.25016 54.098C5.59846 54.5868 6.00417 55.112 6.42955 55.5703C6.82378 55.9951 7.27258 56.404 7.74003 56.6571C-0.72476 85.9303 0.764344 106.241 8.34515 139.29C7.72693 139.52 7.6339 139.494 7.67263 139.432C7.38609 139.639 6.74644 140.115 6.42955 140.456C6.00417 140.914 5.59846 141.44 5.25016 141.928C4.90064 142.419 4.60165 142.883 4.39026 143.224C4.28438 143.395 4.19998 143.535 4.1417 143.634C4.11255 143.683 4.0899 143.722 4.07433 143.749L4.05634 143.78L4.05145 143.789L4.04948 143.792L3.97583 143.942C3.94271 144.013 3.89628 144.115 3.841 144.243C3.7306 144.497 3.58393 144.857 3.43716 145.282C3.14794 146.12 2.83966 147.263 2.83966 148.367C2.83966 150.222 3.49234 151.535 4.64507 152.292C5.75352 153.02 7.18968 153.143 8.59184 152.956C10.0085 152.768 11.4894 152.253 12.7823 151.583C13.9703 150.967 15.0469 150.195 15.7798 149.375C69.2549 159.794 98.8942 159.209 142.393 149.613C143.113 150.344 144.094 151.027 145.167 151.583C146.46 152.253 147.941 152.768 149.357 152.956C150.759 153.143 152.196 153.02 153.304 152.292C154.457 151.535 155.109 150.222 155.109 148.367C155.109 147.263 154.801 146.12 154.512 145.282C154.365 144.857 154.218 144.497 154.108 144.243C154.053 144.115 154.006 144.013 153.973 143.942C153.957 143.907 153.943 143.879 153.934 143.86L153.923 143.837L153.92 143.83L153.919 143.828L153.918 143.827L153.909 143.809L153.899 143.791L153.898 143.789L153.416 142.996C153.221 142.689 152.976 142.317 152.699 141.928C152.351 141.44 151.945 140.914 151.519 140.456C151.204 140.116 150.853 139.786 150.486 139.538C157.926 110.415 157.836 89.5727 150.223 56.6494C150.685 56.3958 151.129 55.9908 151.519 55.5703C151.945 55.112 152.351 54.5868 152.699 54.098C153.048 53.6075 153.347 53.1433 153.559 52.8024C153.665 52.6316 153.749 52.4909 153.807 52.3922L153.842 52.3333L153.875 52.2771L153.893 52.2459L153.898 52.2374L153.9 52.2339L153.934 52.1665L153.944 52.1464L153.973 52.0839C154.006 52.013 154.053 51.9113 154.108 51.7838C154.218 51.5291 154.365 51.169 154.512 50.7438C154.801 49.906 155.109 48.7629 155.109 47.6592C155.109 45.8039 154.457 44.4915 153.304 43.7344C152.196 43.0064 150.759 42.8837 149.357 43.0699C147.941 43.258 146.46 43.7731 145.167 44.4435C143.999 45.0489 142.939 45.8046 142.208 46.6088Z" fill="#415894"/>
<path d="M153.934 52.1665L153.944 52.1464L153.973 52.0839C154.006 52.013 154.053 51.9113 154.108 51.7838C154.218 51.5291 154.365 51.169 154.512 50.7438C154.801 49.906 155.109 48.7629 155.109 47.6592C155.109 45.8039 154.457 44.4915 153.304 43.7344C152.196 43.0064 150.759 42.8837 149.357 43.0699C147.941 43.258 146.46 43.7731 145.167 44.4435C143.999 45.0489 142.939 45.8046 142.208 46.6088C94.3726 35.7009 64.9111 34.575 15.7384 46.6054C15.0066 45.8025 13.9481 45.048 12.7823 44.4435C11.4894 43.7731 10.0085 43.258 8.59184 43.0699C7.18968 42.8837 5.75352 43.0064 4.64507 43.7344C3.49234 44.4915 2.83966 45.8039 2.83966 47.6592C2.83966 48.7629 3.14794 49.906 3.43716 50.7438C3.58393 51.169 3.7306 51.5291 3.841 51.7838C3.89628 51.9113 3.94271 52.013 3.97583 52.0839M153.934 52.1665L153.923 52.1894L153.92 52.1961L153.919 52.1982L153.934 52.1665ZM153.934 52.1665L153.9 52.2339L153.898 52.2374L153.893 52.2459L153.875 52.2771L153.842 52.3333L153.807 52.3922C153.749 52.4909 153.665 52.6316 153.559 52.8024C153.347 53.1433 153.048 53.6075 152.699 54.098C152.351 54.5868 151.945 55.112 151.519 55.5703C151.129 55.9908 150.685 56.3958 150.223 56.6494C157.836 89.5727 157.926 110.415 150.486 139.538C150.853 139.786 151.204 140.116 151.519 140.456C151.945 140.914 152.351 141.44 152.699 141.928M152.699 141.928C153.048 142.419 153.347 142.883 153.559 143.224C153.665 143.395 153.749 143.535 153.807 143.634C153.837 143.683 153.859 143.722 153.875 143.749L153.893 143.78L153.898 143.789M152.699 141.928C152.976 142.317 153.221 142.689 153.416 142.996M153.898 143.789L153.899 143.791M153.898 143.789L153.416 142.996M153.899 143.791L153.416 142.996M153.899 143.791L153.909 143.809L153.918 143.827L153.919 143.828L153.92 143.83L153.923 143.837L153.934 143.86C153.943 143.879 153.957 143.907 153.973 143.942C154.006 144.013 154.053 144.115 154.108 144.243C154.218 144.497 154.365 144.857 154.512 145.282C154.801 146.12 155.109 147.263 155.109 148.367C155.109 150.222 154.457 151.535 153.304 152.292C152.196 153.02 150.759 153.143 149.357 152.956C147.941 152.768 146.46 152.253 145.167 151.583C144.094 151.027 143.113 150.344 142.393 149.613C98.8942 159.209 69.2549 159.794 15.7798 149.375C15.0469 150.195 13.9703 150.967 12.7823 151.583C11.4894 152.253 10.0085 152.768 8.59184 152.956C7.18968 153.143 5.75352 153.02 4.64507 152.292C3.49234 151.535 2.83966 150.222 2.83966 148.367C2.83966 147.263 3.14794 146.12 3.43716 145.282C3.58393 144.857 3.7306 144.497 3.841 144.243C3.89628 144.115 3.94271 144.013 3.97583 143.942M3.97583 143.942C3.9924 143.907 4.00565 143.879 4.01505 143.86L4.02618 143.837L4.02945 143.83L4.03048 143.828L3.97583 143.942ZM3.97583 143.942L4.04948 143.792L4.05145 143.789L4.05634 143.78L4.07433 143.749C4.0899 143.722 4.11255 143.683 4.1417 143.634C4.19998 143.535 4.28438 143.395 4.39026 143.224C4.60165 142.883 4.90064 142.419 5.25016 141.928C5.59846 141.44 6.00417 140.914 6.42955 140.456C6.74644 140.115 7.38609 139.639 7.67263 139.432M5.25016 54.098C5.59846 54.5868 6.00417 55.112 6.42955 55.5703C6.82378 55.9951 7.27258 56.404 7.74003 56.6571C-0.72476 85.9303 0.764344 106.241 8.34515 139.29C7.72693 139.52 7.6339 139.494 7.67263 139.432M5.25016 54.098C4.90064 53.6075 4.60165 53.1433 4.39026 52.8024C4.28438 52.6316 4.19998 52.4909 4.1417 52.3922C4.1247 52.3635 4.10991 52.3383 4.09745 52.3169M5.25016 54.098C5.15562 53.9653 5.06479 53.8346 4.97838 53.7077M4.05006 52.235L4.05145 52.2374L4.05634 52.2459L4.07433 52.2771C4.08082 52.2884 4.08854 52.3016 4.09745 52.3169M4.05006 52.235L4.97838 53.7077M4.05006 52.235L4.05284 52.2334M4.05006 52.235C4.05006 52.235 4.05009 52.235 4.05284 52.2334M4.65304 51.8881L4.03384 52.1978M4.65304 51.8881L4.05284 52.2334M4.65304 51.8881C4.14984 52.1762 4.06662 52.2251 4.05284 52.2334M4.03099 52.1992L4.02945 52.1961L4.02618 52.1894L4.01505 52.1665C4.01005 52.1562 4.00396 52.1435 3.99686 52.1285M4.03099 52.1992L4.03384 52.1978M4.03099 52.1992L4.05284 52.2334M3.97583 52.0839C3.98359 52.1005 3.99061 52.1154 3.99686 52.1285M3.97583 52.0839L3.99686 52.1285M4.97838 53.7077L4.05505 52.2375M4.09745 52.3169L4.05505 52.2375M3.99686 52.1285L4.03384 52.1978M4.03384 52.1978L4.05284 52.2334M4.05284 52.2334L4.05505 52.2375M7.67263 139.432C7.7034 139.383 7.81718 139.312 7.81718 139.329C7.81718 139.329 7.76213 139.367 7.67263 139.432Z" stroke="#415894" stroke-width="3" stroke-linecap="round"/>
<path fill-rule="evenodd" clip-rule="evenodd" d="M58.0052 62.2278C64.2206 53.9112 74.547 48.4698 86.235 48.4698C102.104 48.4698 115.462 58.4999 119.431 72.138C121.165 75.1 122.158 78.5478 122.158 82.2278V136.622C122.158 147.668 113.204 156.622 102.158 156.622H56.9358C45.8901 156.622 36.9358 147.668 36.9358 136.622V82.2278C36.9358 71.1821 45.8901 62.2278 56.9358 62.2278H58.0052Z" fill="#B0BBDD"/>
<path fill-rule="evenodd" clip-rule="evenodd" d="M108.492 118.38C106.46 132.865 94.0187 144.011 78.9739 144.011C64.2211 144.011 51.9714 133.294 49.5856 119.22C47.8331 121.293 45.2133 122.61 42.2861 122.61C37.0095 122.61 32.732 118.332 32.732 113.056C32.732 107.779 37.0095 103.502 42.2861 103.502C45.4267 103.502 48.2134 105.017 49.9549 107.356C53.0483 94.193 64.8667 84.3933 78.9739 84.3933C93.3888 84.3933 105.414 94.6252 108.183 108.222C109.843 105.398 112.913 103.502 116.426 103.502C121.703 103.502 125.98 107.779 125.98 113.056C125.98 118.332 121.703 122.61 116.426 122.61C113.121 122.61 110.208 120.931 108.492 118.38Z" fill="#F6EFE7"/>
<path d="M74.0058 124.521C77.1763 122.482 81.9321 122.482 84.7064 124.521" stroke="#EBB0CC" stroke-linecap="round"/>
<path fill-rule="evenodd" clip-rule="evenodd" d="M109.165 84.3933H49.5472V89.3614H41.5218V127.578H50.3116V106.177H107.636V127.578H116.808V89.3614H109.165V84.3933ZM61.6723 106.177L58.5281 97.0047L55.3839 106.177H61.6723Z" fill="#B0BBDD"/>
<path d="M31.3896 164.819L20.1271 199.475C19.0772 202.706 21.4853 206.021 24.8823 206.021H135.177C138.431 206.021 140.818 202.961 140.027 199.805L131.331 165.122C130.865 163.266 129.381 161.839 127.509 161.445L81.645 151.814C80.9561 151.669 80.2443 151.671 79.5563 151.821L35.0837 161.479C33.3458 161.856 31.9392 163.128 31.3896 164.819Z" fill="#EBB0CC" stroke="#EBB0CC" stroke-linecap="round"/>
<path d="M72.8359 152.413V143.41H86.7495V152.413H72.8359Z" fill="#F6EFE7" stroke="#F6EFE7" stroke-linecap="round"/>
<path d="M95.5364 167.881C95.5364 159.338 88.5742 152.413 79.9859 152.413C71.3976 152.413 64.4355 159.338 64.4355 167.881C64.4355 176.424 71.3977 180.24 79.986 180.24C88.5743 180.24 95.5364 176.424 95.5364 167.881Z" fill="#F6EFE7"/>
<path d="M95.5364 167.881C95.5364 159.338 88.5742 152.413 79.9859 152.413C71.3976 152.413 64.4355 159.338 64.4355 167.881L63.4238 154.868L72.4266 152.413H87.5452L96.9801 154.459L95.5364 167.881Z" fill="#F6EFE7"/>
<path d="M120.259 23.3208H111.979L120.17 13.6566V10.7102H107.471V13.6861H115.25L107 23.4976V26.2967H120.259V23.3208Z" fill="#EBB0CC"/>
<path d="M138.51 18.3856H130.231L138.422 8.72134V5.77493H125.723V8.7508H133.501L125.251 18.5624V21.3614H138.51V18.3856Z" fill="#EBB0CC"/>
<path d="M156.054 12.6106H147.775L155.966 2.94641V0H143.267V2.97587H151.045L142.796 12.7874V15.5865H156.054V12.6106Z" fill="#EBB0CC"/>
</svg>
